# xmcd
#
# Track frame offsets:
#	150
#	17144
#	35031
#	50743
#	71530
#	84542
#	100029
#	119416
#	134153
#	147240
#	166327
#	179864
#	193176
#	207514
#
# Disc length: 2991 seconds
#
# Revision: 1
# Processed by: cddbd v1.5.2PL0 Copyright (c) Steve Scherf et al.
# Submitted via: EasyCDDAExtractor 7.0.3.1
#
DISCID=de0bad0e
DTITLE=Various Artist - HITZ 2010 VOL-01
DYEAR=2010
DGENRE=COUNTRY
TTITLE0=Blake Shelton and Trace Adkins - Hillbilly Bone 
TTITLE1=Jason Aldean - The Truth 
TTITLE2=Darius Rucker - History In the Making
TTITLE3=Sugarland - Keep You 
TTITLE4=Jypsi - Mr. Officer 
TTITLE5=Kellie Pickler - Didn't Know How Much I Loved You
TTITLE6=Mallary Hope - Love Lives ON
TTITLE7=Fast Ryde - Make It Rain
TTITLE8=Joe Nichols - Gimme That Girl
TTITLE9=Lee Ann Womack - There Is A God
TTITLE10=The Band Perry - Hip To My Heart
TTITLE11=Randy Houser - Whistlin' Dixie
TTITLE12=Josh Thompson - Beer On the Table 
TTITLE13=Billy Currington - That's How Country Boys Roll
EXTD=
EXTT0=
EXTT1=
EXTT2=
EXTT3=
EXTT4=
EXTT5=
EXTT6=
EXTT7=
EXTT8=
EXTT9=
EXTT10=
EXTT11=
EXTT12=
EXTT13=
PLAYORDER=
